<svg xmlns="http://www.w3.org/2000/svg" width="200" height="200" viewBox="0 0 500 500" version="1.1"><path d="M 339.345 160.049 C 331.624 162.395, 322.340 176.480, 313.012 200 C 310.721 205.775, 308.488 210.871, 308.050 211.324 C 307.611 211.777, 304.720 207.366, 301.627 201.521 C 285.133 170.358, 273.026 160.704, 263.036 170.750 C 256.790 177.031, 255.638 181.543, 245.354 240 C 240.843 265.641, 241.917 276.085, 249.434 279.670 C 256.299 282.944, 263.670 278.715, 265.932 270.205 C 266.474 268.167, 268.066 255.250, 269.470 241.500 C 272.997 206.966, 274.130 198, 274.968 198 C 276.842 198, 279.580 203.026, 286.903 219.901 C 296.003 240.873, 300.287 247.959, 305.306 250.341 C 309.875 252.509, 312.782 252.430, 316.715 250.032 C 320.960 247.444, 323.551 242.090, 331.485 219.504 C 335.116 209.168, 338.684 199.572, 339.414 198.179 C 340.673 195.776, 340.792 195.745, 341.739 197.574 C 342.287 198.633, 343.019 209.400, 343.363 221.500 C 344.032 244.971, 346.613 266.235, 349.290 270.320 C 352.822 275.711, 362.067 276.273, 365.953 271.332 C 370.534 265.509, 371.115 255.551, 368.522 227.331 C 365.594 195.454, 362.764 180.719, 357.389 169.357 C 353.476 161.085, 346.974 157.731, 339.345 160.049 M 170.782 173.553 C 152.963 177.873, 139.806 190.788, 132.913 210.725 C 126.912 228.083, 131.158 249.885, 142.973 262.378 C 151.943 271.862, 165.282 277.158, 180.203 277.158 C 193.836 277.158, 201.596 273.211, 212.950 260.500 C 225.125 246.870, 229.650 237.682, 230.677 224.500 C 232.131 205.841, 223.996 189.368, 208.981 180.568 C 195.821 172.855, 183.212 170.539, 170.782 173.553 M 168.379 197.425 C 162.073 200.194, 155.086 213.057, 154.253 223.433 C 152.936 239.839, 162.854 252, 177.550 252 C 186.216 252, 195.192 244.527, 201.447 232.104 C 205.215 224.624, 205.697 221.385, 203.864 215.899 C 202.004 210.335, 198.063 206.987, 187.492 201.993 C 175.502 196.329, 172.506 195.613, 168.379 197.425 M 198.981 311.036 C 198.382 312.156, 196.566 313.337, 194.946 313.661 C 190.971 314.456, 191.172 316.793, 195.250 317.187 L 198.500 317.500 198.789 326.250 C 199.051 334.177, 199.262 335, 201.039 335 C 202.886 335, 203 334.247, 203 322 C 203 311.250, 202.746 309, 201.535 309 C 200.730 309, 199.580 309.916, 198.981 311.036 M 246.229 309.669 C 240.438 311.999, 240.696 332.134, 246.545 334.379 C 250.467 335.884, 255.648 335.003, 258.076 332.419 C 260.216 330.141, 260.500 328.920, 260.500 322 C 260.500 315.080, 260.216 313.859, 258.076 311.581 C 256.202 309.586, 254.726 309.018, 251.576 309.079 C 249.334 309.122, 246.928 309.388, 246.229 309.669 M 296.223 310.557 C 293.583 312.406, 293.239 317.096, 295.572 319.429 C 297.002 320.859, 296.956 321.240, 295.072 323.636 C 292.458 326.959, 292.458 329.041, 295.073 332.365 C 296.815 334.581, 297.937 335, 302.118 335 C 310.607 335, 314.744 328.653, 309.605 323.514 C 307.264 321.173, 307.252 321.082, 309.105 319.405 C 311.718 317.041, 311.549 312.498, 308.777 310.557 C 307.555 309.701, 304.730 309, 302.500 309 C 300.270 309, 297.445 309.701, 296.223 310.557 M 300.750 312.748 C 298.233 313.321, 298.459 317.693, 301.048 318.515 C 303.292 319.228, 306 317.531, 306 315.413 C 306 313.721, 303.052 312.224, 300.750 312.748 M 248.035 314.934 C 247.466 315.998, 247 319.178, 247 322 C 247 328.015, 248.319 331, 250.978 331 C 253.836 331, 256 327.122, 256 322 C 256 314.599, 250.721 309.916, 248.035 314.934 M 300.098 324.644 C 298.727 325.604, 298.003 327.012, 298.193 328.347 C 298.638 331.470, 305.527 332.067, 306.480 329.064 C 307.748 325.069, 303.596 322.194, 300.098 324.644 M 223.701 329.632 C 223.316 330.018, 223 331.415, 223 332.736 C 223 334.656, 223.452 335.075, 225.250 334.820 C 226.894 334.586, 227.500 333.831, 227.500 332.014 C 227.500 329.600, 225.185 328.149, 223.701 329.632 M 275.701 329.632 C 275.316 330.018, 275 331.415, 275 332.736 C 275 334.656, 275.452 335.075, 277.250 334.820 C 278.894 334.586, 279.500 333.831, 279.500 332.014 C 279.500 329.600, 277.185 328.149, 275.701 329.632" stroke="none" fill="#000000" fill-rule="evenodd"/></svg>
